<?xml version="1.0" encoding="UTF-8"?><svg id="Layer_1" xmlns="http://www.w3.org/2000/svg" xmlns:xlink="http://www.w3.org/1999/xlink" viewBox="0 0 115.45 80"><defs><style>.cls-1{clip-path:url(#clippath-3);}.cls-1,.cls-2,.cls-3{fill:none;}.cls-4{fill:#e53e3e;}.cls-5,.cls-6{fill:#efefef;}.cls-7,.cls-8{fill:#e0e0e0;}.cls-9{fill:#2b6cb0;}.cls-2,.cls-6,.cls-8{stroke:#000;stroke-miterlimit:10;stroke-width:.75px;}.cls-3{clip-path:url(#clippath);}</style><clipPath id="clippath"><path class="cls-8" d="m81.6,77.07h0c7.49,1.8,15.03-2.81,16.51-9.98l10.74-44.65c2.12-7.81-2.49-15.35-9.98-17.15h0c-7.49-1.8-15.03,2.81-16.83,10.3l-10.74,44.65c-1.8,7.49,2.81,15.03,10.3,16.83Z"/></clipPath><clipPath id="clippath-3"><path class="cls-6" d="m36.41,77.17h0c-7.49,1.8-15.03-2.81-16.83-10.3L5.94,10.13c-.2-.81.3-1.63.8-1.5L30.93,2.8c1.13-.51,1.95-.01,2.14.8l13.65,56.74c1.8,7.49-2.81,15.03-10.3,16.83Z"/></clipPath></defs><path class="cls-7" d="m81.6,77.07h0c7.49,1.8,15.03-2.81,16.51-9.98l10.74-44.65c2.12-7.81-2.49-15.35-9.98-17.15h0c-7.49-1.8-15.03,2.81-16.83,10.3l-10.74,44.65c-1.8,7.49,2.81,15.03,10.3,16.83Z"/><g class="cls-3"><path class="cls-4" d="m119.04,16.52c.54-3.21.02-6.57-1.28-9.54-3.08-7.04-10.19-11.27-17.56-12.5-3.53-.59-7.65-.53-10.55,1.86-1.75,1.44-2.7,3.5-4.07,5.26-.49.63-1.08,1.25-1.75,1.73,0-.05,0-.1,0-.15,0-.72-1.11-.64-1.12.08,0,.23,0,.46,0,.69-.61.24-1.26.34-1.94.24-.71-.11-.93.99-.21,1.1.8.12,1.54.05,2.22-.17.53,6.15,3.99,11.85,8.75,15.72,3.23,2.62,7.01,4.47,10.97,5.71,1.98.62,4.01,1.09,6.06,1.4.85.13,1.71.21,2.53-.1.82-.31,1.5-.9,2.15-1.47,2.9-2.56,5.14-5.99,5.79-9.85Z"/></g><path class="cls-2" d="m81.6,77.07h0c7.49,1.8,15.03-2.81,16.51-9.98l10.74-44.65c2.12-7.81-2.49-15.35-9.98-17.15h0c-7.49-1.8-15.03,2.81-16.83,10.3l-10.74,44.65c-1.8,7.49,2.81,15.03,10.3,16.83Z"/><path class="cls-7" d="m25.83,75.38h0c-6.57-4.02-8.64-12.61-4.61-19.19l20.84-34.04c5.76-9.4,18.04-12.36,27.44-6.6h0c3.74,2.29,4.92,7.18,2.31,11.24l-27.11,44.28c-3.7,6.25-12.29,8.32-18.87,4.29Z"/><path class="cls-2" d="m25.83,75.38h0c-6.57-4.02-8.64-12.61-4.61-19.19l20.84-34.04c5.76-9.4,18.04-12.36,27.44-6.6h0c3.74,2.29,4.92,7.18,2.31,11.24l-27.11,44.28c-3.7,6.25-12.29,8.32-18.87,4.29Z"/><path class="cls-5" d="m92.14,75.37h0c6.57-4.02,8.64-12.61,4.61-19.19l-20.84-34.04c-5.76-9.4-18.04-12.36-27.44-6.6h0c-3.74,2.29-4.92,7.18-2.95,11.24l27.11,44.28c4.34,6.25,12.93,8.32,19.5,4.29Z"/><path class="cls-2" d="m92.14,75.37h0c6.57-4.02,8.64-12.61,4.61-19.19l-20.84-34.04c-5.76-9.4-18.04-12.36-27.44-6.6h0c-3.74,2.29-4.92,7.18-2.95,11.24l27.11,44.28c4.34,6.25,12.93,8.32,19.5,4.29Z"/><path class="cls-5" d="m36.41,77.17h0c-7.49,1.8-15.03-2.81-16.83-10.3L5.94,10.13c-.2-.81.3-1.63.8-1.5L30.93,2.8c1.13-.51,1.95-.01,2.14.8l13.65,56.74c1.8,7.49-2.81,15.03-10.3,16.83Z"/><g class="cls-1"><rect class="cls-4" x="2.43" y="10.85" width="38.61" height="3.95" transform="translate(-2.4 5.44) rotate(-13.52)"/><rect class="cls-9" x="4.07" y="17.05" width="38.61" height="3.95" transform="translate(-3.8 5.99) rotate(-13.52)"/></g><path class="cls-2" d="m36.41,77.17h0c-7.49,1.8-15.03-2.81-16.83-10.3L5.94,10.13c-.2-.81.3-1.63.8-1.5L30.93,2.8c1.13-.51,1.95-.01,2.14.8l13.65,56.74c1.8,7.49-2.81,15.03-10.3,16.83Z"/></svg>